<svg xmlns="http://www.w3.org/2000/svg" fill="none" viewBox="0 0 160 40">
    <path fill="#FD6E1D" d="M7.212.025c-.246-.096-.51.096-.51.364v4.813c0 .326.207.614.49.729 2.667.978 4.368 1.591 7.034 2.588.246.096.51-.095.51-.364V3.323a.795.795 0 0 0-.49-.729L7.211.025Z"/>
    <path fill="#FD6E1D" fill-rule="evenodd" d="M14.737 10.528h-.264c-1.91 0-3.782.403-5.54 1.17a13.89 13.89 0 0 0-4.614 3.317 15.04 15.04 0 0 0-3.781 9.166C.5 24.583.5 25.024.5 25.465v.173a14.445 14.445 0 0 0 3.838 9.76 14.215 14.215 0 0 0 8.679 4.487c.435.057.889.096 1.342.115.19 0 .34-.154.34-.326v-2.857a.369.369 0 0 1 .34-.345l.587-.058a12.798 12.798 0 0 0 8.13-3.758A13.054 13.054 0 0 0 27.5 23.49a13.012 13.012 0 0 0-3.725-9.166 12.69 12.69 0 0 0-9.038-3.796Zm7.696 14.516a8.056 8.056 0 0 1-2.156 4.103 7.875 7.875 0 0 1-4.046 2.186 7.73 7.73 0 0 1-4.557-.46c-1.437-.614-2.684-1.63-3.535-2.953a8.106 8.106 0 0 1-.719-7.517 7.998 7.998 0 0 1 1.72-2.607 7.997 7.997 0 0 1 2.553-1.745 7.831 7.831 0 0 1 3.026-.614c1.569 0 3.081.48 4.386 1.342a8.021 8.021 0 0 1 2.912 3.586c.548 1.515.718 3.125.416 4.679Z" clip-rule="evenodd"/>
    <path fill="#fff" d="m148.767 19.173 3.291 4.313h.127l3.307-4.313h3.896l-4.98 6.327 5.091 6.327h-3.967l-3.347-4.32h-.127l-3.346 4.32h-3.952l5.107-6.327-5.012-6.327h3.912ZM142.696 19.173v12.654h-3.45V19.173h3.45ZM126.516 31.827V19.173h3.45V29.62h6.995v2.206h-10.445ZM113.391 31.827V19.173h10.803v2.206h-7.353v3.015h6.636V26.6h-6.636v5.227h-3.45ZM96.651 31.827V19.173h3.45v5.22h7.004v-5.22h3.442v12.654h-3.442v-5.228h-7.004v5.228h-3.45ZM94.178 23.603h-3.49a2.26 2.26 0 0 0-.39-.933 2.638 2.638 0 0 0-.757-.704 3.72 3.72 0 0 0-1.068-.445 5.178 5.178 0 0 0-1.298-.155c-.845 0-1.58.163-2.207.488a3.428 3.428 0 0 0-1.458 1.41c-.346.613-.518 1.358-.518 2.236 0 .902.172 1.66.518 2.274a3.41 3.41 0 0 0 1.466 1.39c.627.313 1.352.47 2.175.47.462 0 .89-.048 1.283-.143a3.817 3.817 0 0 0 1.06-.414c.307-.185.562-.41.764-.673.207-.264.35-.564.43-.902l3.49.012a4.151 4.151 0 0 1-.677 1.68c-.356.536-.837 1.016-1.442 1.44-.6.42-1.317.754-2.151 1.001-.83.243-1.767.365-2.813.365-1.455 0-2.757-.256-3.904-.766-1.142-.511-2.045-1.25-2.709-2.218-.659-.968-.988-2.14-.988-3.516 0-1.38.335-2.554 1.004-3.522.67-.968 1.578-1.705 2.725-2.212 1.147-.51 2.438-.766 3.872-.766.945 0 1.822.103 2.63.309a7.446 7.446 0 0 1 2.159.902 5.14 5.14 0 0 1 1.53 1.44 4.54 4.54 0 0 1 .764 1.952ZM66.577 31.827H62.88l5.633-12.654h4.446l5.625 12.654h-3.697l-4.088-9.763h-.127l-4.095 9.763Zm-.231-4.974h8.732v2.088h-8.732v-2.088ZM50.026 31.827V19.173h10.995v2.206h-7.545v3.015h6.98V26.6h-6.98v3.02h7.577v2.207H50.026ZM35.5 31.827V19.173h6.438c1.237 0 2.292.183 3.163.55.87.362 1.535.867 1.992 1.513.462.643.693 1.384.693 2.225 0 .84-.234 1.582-.701 2.224-.468.643-1.145 1.143-2.032 1.502-.882.358-1.95.537-3.203.537h-4.103V25.58h3.545c.664 0 1.211-.088 1.642-.266.435-.18.76-.43.972-.747.217-.322.326-.69.326-1.106 0-.42-.109-.787-.326-1.1-.213-.317-.537-.562-.972-.735-.436-.177-.988-.266-1.658-.266H38.95v10.467H35.5Z"/>
</svg>